<svg width="82" height="32" viewBox="0 0 82 32" fill="none" xmlns="http://www.w3.org/2000/svg">
<g clip-path="url(#clip0_48_2023)">
<path d="M3.87986 23.3469H5.43178C5.71766 23.3469 5.92186 23.2245 5.92186 23.0204C5.92186 22.8163 5.67682 22.6938 5.43178 22.6938H3.02222V24.2857L3.43062 23.6326C3.55314 23.4285 3.7165 23.3469 3.87986 23.3469Z" fill="white"/>
<path d="M3.87986 25.1837H5.43178C5.71766 25.1837 5.9627 24.9796 5.9627 24.7347C5.9627 24.4898 5.71766 24.2857 5.43178 24.2857H3.02222V26.0816L3.43062 25.4286C3.55314 25.2653 3.7165 25.1837 3.87986 25.1837Z" fill="white"/>
<path d="M0 0V32H32.0186V0H0ZM10.2508 5.95918H17.1528C18.9089 5.95918 21.7677 6.2449 21.7677 8.97959C21.7677 10.3265 20.7876 11.2653 19.6032 11.6327C21.0326 12.1633 21.7677 13.102 21.7677 14.3673C21.7677 17.1837 19.0723 17.4694 17.1528 17.4694H14.8249V15.6327C14.8249 14.6122 15.6826 14.6531 15.6826 14.6531H17.7654C18.2555 14.6531 18.4188 14.2449 18.4188 14.2449L19.154 12.7755H15.6417C14.8658 12.8571 14.7841 13.7959 14.7841 13.7959V11.3878C14.7841 10.2857 15.6826 10.2857 15.6826 10.2857H18.2963C18.8272 10.2857 18.9906 9.95918 18.9906 9.95918L19.7666 8.40816H12.6604V17.4694H11.6802H10.2508V5.95918ZM5.43172 26.0816H3.02216H1.6336V21.7551H5.43172C6.20768 21.7551 7.47372 21.8776 7.47372 22.898C7.47372 23.3878 7.02448 23.7551 6.5344 23.8776C7.18784 24.0816 7.47372 24.4082 7.47372 24.898C7.51456 25.9592 6.28936 26.0816 5.43172 26.0816ZM12.7829 26.0816L12.3337 25.3061H9.88328L10.2917 24.6531C10.4142 24.4898 10.5776 24.4082 10.7409 24.4082H11.8028L10.8634 22.8163L8.9848 26.0816H7.3512L10.0058 21.7551H11.8028L14.4574 26.0816H12.7829ZM17.5204 26.0816H15.1925C15.0291 26.0816 14.8249 26 14.7432 25.8367L14.3348 25.1837H16.9894C17.3162 25.1837 17.5612 25.0204 17.5612 24.7347V21.7959H18.9498V24.8571C18.9498 25.7551 18.3372 26.0816 17.5204 26.0816ZM24.2181 26.0816L23.8097 25.3061H21.3593L21.7677 24.6531C21.8902 24.4898 22.0536 24.4082 22.217 24.4082H23.2788L22.3395 22.8163L20.4608 26.0816H18.8272L21.4818 21.7551H23.2788L25.9334 26.0816H24.2181ZM30.4258 24.8163C30.4258 25.7551 29.8132 26.0408 28.9964 26.0408H26.6685C26.5052 26.0408 26.301 25.9592 26.2193 25.7959L25.8109 25.1429H28.4655C28.7922 25.1429 29.0372 24.9796 29.0372 24.6939V21.7551H30.4258V24.8163Z" fill="white"/>
<path d="M77.7594 19.102L81.2308 12.8979H78.8621L76.4934 17.6326L74.0838 12.8979H71.7151L75.1865 19.102" fill="white"/>
<path d="M43.9438 12.8979H41.9426V19.102H43.9438V12.8979Z" fill="white"/>
<path d="M49.5798 12.8979V16.3673L47.2111 12.8979H44.8015V19.102H46.8027V15.6735L46.8435 15.7143L49.1714 19.102H51.581V12.8979H49.5798Z" fill="white"/>
<path d="M72.3685 19.102L70.9391 16.6939L70.8166 16.4898C71.1025 16.3673 71.3475 16.1224 71.5517 15.8775C71.7559 15.5918 71.8784 15.2245 71.8376 14.8979C71.8376 14.6531 71.7967 14.4082 71.7151 14.1633C71.6334 13.9184 71.47 13.7143 71.3067 13.5102C71.1025 13.3061 70.8983 13.1837 70.6124 13.0612C70.3265 12.9388 69.9998 12.8979 69.7139 12.8979H65.9158L66.4059 14.2041H68.9379C69.1013 14.2041 69.3055 14.2449 69.428 14.4082C69.5505 14.5306 69.6322 14.6939 69.5914 14.8571C69.5914 15.0204 69.5097 15.1837 69.428 15.3469C69.3055 15.4694 69.1013 15.5918 68.9379 15.5918H66.8959L67.3452 16.8571H68.6929L69.9998 19.1428H72.3685V19.102Z" fill="white"/>
<path d="M58.8096 17.1428C58.8096 16.7346 58.6463 15.5918 56.8493 15.2653C56.6859 15.2244 56.4409 15.2244 56.3592 15.2244C56.1142 15.2244 55.7875 15.1836 55.3382 15.2244H55.2157C55.0115 15.2244 54.4806 15.1836 54.4397 14.7346C54.4397 14.7346 54.3989 14.2857 55.0523 14.2448H58.4829V12.9387C58.4829 12.9387 55.5424 12.9387 54.5623 12.9387C53.868 12.9387 52.3977 12.9387 52.2344 14.4081C52.2344 14.4081 52.2344 14.4081 52.2344 14.4489V14.4897C52.2344 14.5714 52.2344 14.653 52.2344 14.7346C52.2344 15.0204 52.3569 15.9183 53.6638 16.3265C53.6638 16.3265 54.1539 16.5306 55.0523 16.5714C55.0523 16.5714 55.7058 16.5714 55.8283 16.5714C55.8283 16.5714 56.3184 16.5714 56.4409 16.8979C56.4409 16.8979 56.8493 17.6326 55.91 17.8367C55.8691 17.8367 55.7058 17.8775 55.5424 17.8775H52.6428V19.1836H55.91C55.91 19.1836 58.4829 19.2244 58.7688 17.5918C58.8096 17.3469 58.8096 17.1836 58.8096 17.1428Z" fill="white"/>
<path d="M35.2449 12.8979V19.102H35.5308H37.246V16.6122H39.0022C39.4106 16.6122 39.5331 16.3265 39.5331 16.3265L40.1457 15.3061H37.246V14.9387C37.2869 14.2041 37.9812 14.1632 37.9812 14.1632H40.1048C40.5541 14.1632 40.6766 13.9183 40.6766 13.9183L41.33 12.8571H35.2449V12.8979Z" fill="white"/>
<path d="M61.4642 14.9796V15.3469H64.323L63.7104 16.3265C63.7104 16.3265 63.5879 16.6122 63.1795 16.6122H61.4642V17.1837C61.4642 17.1837 61.4642 17.2245 61.4642 17.3061C61.5867 17.5918 61.8317 17.7959 62.1585 17.7959H64.6497H65.1806V19.102H59.3813V12.8979H65.1806V14.2041H62.1585C61.7909 14.2041 61.4642 14.5306 61.4642 14.9796Z" fill="white"/>
</g>
<defs>
<clipPath id="clip0_48_2023">
<rect width="81.2308" height="32" fill="white"/>
</clipPath>
</defs>
</svg>
